<?xml version="1.0" encoding="UTF-8"?>
<!DOCTYPE svg PUBLIC "-//W3C//DTD SVG 1.1//EN" "http://www.w3.org/Graphics/SVG/1.1/DTD/svg11.dtd">
<svg version="1.1" xmlns="http://www.w3.org/2000/svg" xmlns:xlink="http://www.w3.org/1999/xlink" x="0" y="0" width="500" height="500" viewBox="0, 0, 500, 500">
  <g id="Background">
    <rect x="0" y="0" width="500" height="500" fill="#000000" fill-opacity="0"/>
  </g>
  <g id="Layer_1">
    <g>
      <path d="M250.662,328.502 C291.666,327.468 326.081,301.779 328.505,258.822 L328.505,258.795 C326.809,215.213 291.058,190.944 250.651,189.117 C207.658,189.117 172.796,220.315 172.796,258.809 C174.488,302.39 210.226,326.676 250.639,328.502 L250.662,328.502 z" fill="#F8D237"/>
      <path d="M250.662,328.502 C291.666,327.468 326.081,301.779 328.505,258.822 L328.505,258.795 C326.809,215.213 291.058,190.944 250.651,189.117 C207.658,189.117 172.796,220.315 172.796,258.809 C174.488,302.39 210.226,326.676 250.639,328.502 L250.662,328.502 z" fill-opacity="0" stroke="#000000" stroke-width="5"/>
    </g>
    <path d="M328.505,258.809 C328.505,297.305 293.646,328.503 250.65,328.503 C207.657,328.503 172.795,297.305 172.795,258.809 C172.795,220.315 207.657,189.117 250.65,189.117 C293.646,189.117 328.505,220.315 328.505,258.809 z" fill-opacity="0" stroke="#000000" stroke-width="5"/>
    <g>
      <path d="M235.338,246.244 C235.338,254.943 231.431,261.991 226.621,261.991 C221.803,261.991 217.899,254.943 217.899,246.244 C217.899,237.544 221.803,230.496 226.621,230.496 C231.431,230.496 235.338,237.544 235.338,246.244" fill="#000000"/>
      <path d="M235.338,246.244 C235.338,254.943 231.431,261.991 226.621,261.991 C221.803,261.991 217.899,254.943 217.899,246.244 C217.899,237.544 221.803,230.496 226.621,230.496 C231.431,230.496 235.338,237.544 235.338,246.244" fill-opacity="0" stroke="#000000" stroke-width="5"/>
    </g>
    <path d="M235.338,246.244 C235.338,254.943 231.431,261.991 226.621,261.991 C221.803,261.991 217.899,254.943 217.899,246.244 C217.899,237.544 221.803,230.496 226.621,230.496 C231.431,230.496 235.338,237.544 235.338,246.244 z" fill-opacity="0" stroke="#000000" stroke-width="5"/>
    <g>
      <path d="M217.304,284.046 C214.784,325.212 269.758,300.061 286.813,286.192 C292.158,281.845 283.94,280.374 280.512,282.598 C280.468,282.627 280.427,282.652 280.386,282.681 C274.74,286.344 283.178,288.553 286.688,286.275 C286.729,286.246 286.772,286.22 286.813,286.192 C284.713,284.995 282.612,283.798 280.512,282.598 C273.545,288.264 264.383,292.301 256.262,295.859 C241.633,302.27 225.975,303.655 227.242,282.993 C227.52,278.432 217.537,280.253 217.304,284.046" fill="#000000"/>
      <path d="M217.304,284.046 C214.784,325.212 269.758,300.061 286.813,286.192 C292.158,281.845 283.94,280.374 280.512,282.598 C280.468,282.627 280.427,282.652 280.386,282.681 C274.74,286.344 283.178,288.553 286.688,286.275 C286.729,286.246 286.772,286.22 286.813,286.192 C284.713,284.995 282.612,283.798 280.512,282.598 C273.545,288.264 264.383,292.301 256.262,295.859 C241.633,302.27 225.975,303.655 227.242,282.993 C227.52,278.432 217.537,280.253 217.304,284.046" fill-opacity="0" stroke="#000000" stroke-width="5"/>
    </g>
    <g>
      <path d="M400,190.48 C400,203.405 389.976,213.884 377.613,213.884 C365.251,213.884 355.226,203.405 355.226,190.48 C355.226,177.555 365.251,167.076 377.613,167.076 C389.976,167.076 400,177.555 400,190.48" fill="#F8D237"/>
      <path d="M400,190.48 C400,203.405 389.976,213.884 377.613,213.884 C365.251,213.884 355.226,203.405 355.226,190.48 C355.226,177.555 365.251,167.076 377.613,167.076 C389.976,167.076 400,177.555 400,190.48" fill-opacity="0" stroke="#000000" stroke-width="5"/>
    </g>
    <path d="M400,190.48 C400,203.405 389.976,213.884 377.613,213.884 C365.251,213.884 355.226,203.405 355.226,190.48 C355.226,177.555 365.251,167.076 377.613,167.076 C389.976,167.076 400,177.555 400,190.48 z" fill-opacity="0" stroke="#000000" stroke-width="5"/>
    <g>
      <path d="M400,293.673 C400,306.598 389.976,317.077 377.613,317.077 C365.251,317.077 355.226,306.598 355.226,293.673 C355.226,280.748 365.251,270.269 377.613,270.269 C389.976,270.269 400,280.748 400,293.673" fill="#F8D237"/>
      <path d="M400,293.673 C400,306.598 389.976,317.077 377.613,317.077 C365.251,317.077 355.226,306.598 355.226,293.673 C355.226,280.748 365.251,270.269 377.613,270.269 C389.976,270.269 400,280.748 400,293.673" fill-opacity="0" stroke="#000000" stroke-width="5"/>
    </g>
    <path d="M400,293.673 C400,306.598 389.976,317.077 377.613,317.077 C365.251,317.077 355.226,306.598 355.226,293.673 C355.226,280.748 365.251,270.269 377.613,270.269 C389.976,270.269 400,280.748 400,293.673 z" fill-opacity="0" stroke="#000000" stroke-width="5"/>
    <g>
      <path d="M347.251,376.596 C347.251,389.521 337.227,400 324.864,400 C312.502,400 302.478,389.521 302.478,376.596 C302.478,363.668 312.502,353.189 324.864,353.189 C337.227,353.189 347.251,363.668 347.251,376.596" fill="#F8D237"/>
      <path d="M347.251,376.596 C347.251,389.521 337.227,400 324.864,400 C312.502,400 302.478,389.521 302.478,376.596 C302.478,363.668 312.502,353.189 324.864,353.189 C337.227,353.189 347.251,363.668 347.251,376.596" fill-opacity="0" stroke="#000000" stroke-width="5"/>
    </g>
    <path d="M347.251,376.596 C347.251,389.521 337.227,400 324.864,400 C312.502,400 302.478,389.521 302.478,376.596 C302.478,363.668 312.502,353.189 324.864,353.189 C337.227,353.189 347.251,363.668 347.251,376.596 z" fill-opacity="0" stroke="#000000" stroke-width="5"/>
    <g>
      <path d="M357.783,123.404 C357.783,136.329 347.759,146.808 335.396,146.808 C323.033,146.808 313.009,136.329 313.009,123.404 C313.009,110.479 323.033,100 335.396,100 C347.759,100 357.783,110.479 357.783,123.404" fill="#F8D237"/>
      <path d="M357.783,123.404 C357.783,136.329 347.759,146.808 335.396,146.808 C323.033,146.808 313.009,136.329 313.009,123.404 C313.009,110.479 323.033,100 335.396,100 C347.759,100 357.783,110.479 357.783,123.404" fill-opacity="0" stroke="#000000" stroke-width="5"/>
    </g>
    <path d="M357.783,123.404 C357.783,136.329 347.759,146.808 335.396,146.808 C323.033,146.808 313.009,136.329 313.009,123.404 C313.009,110.479 323.033,100 335.396,100 C347.759,100 357.783,110.479 357.783,123.404 z" fill-opacity="0" stroke="#000000" stroke-width="5"/>
    <path d="M285.836,196.646 C279.486,155.9 291.933,140.3 319.931,140.3" fill-opacity="0" stroke="#000000" stroke-width="5"/>
    <path d="M319.931,226.127 C319.931,228.879 313.008,178.872 355.225,190.481" fill-opacity="0" stroke="#000000" stroke-width="5" stroke-linecap="round"/>
    <path d="M328.505,258.809 C344.889,239.912 373.278,240.608 377.505,270.903" fill-opacity="0" stroke="#000000" stroke-width="5"/>
    <g>
      <path d="M281.39,246.244 C281.39,254.943 277.486,261.991 272.674,261.991 C267.856,261.991 263.952,254.943 263.952,246.244 C263.952,237.544 267.856,230.496 272.674,230.496 C277.486,230.496 281.39,237.544 281.39,246.244" fill="#000000"/>
      <path d="M281.39,246.244 C281.39,254.943 277.486,261.991 272.674,261.991 C267.856,261.991 263.952,254.943 263.952,246.244 C263.952,237.544 267.856,230.496 272.674,230.496 C277.486,230.496 281.39,237.544 281.39,246.244" fill-opacity="0" stroke="#000000" stroke-width="5"/>
    </g>
    <path d="M281.39,246.244 C281.39,254.943 277.486,261.991 272.674,261.991 C267.856,261.991 263.952,254.943 263.952,246.244 C263.952,237.544 267.856,230.496 272.674,230.496 C277.486,230.496 281.39,237.544 281.39,246.244 z" fill-opacity="0" stroke="#000000" stroke-width="5"/>
    <path d="M293.578,317.078 C341.936,313.023 335.34,337.044 333.15,355.074" fill-opacity="0" stroke="#000000" stroke-width="5"/>
    <g>
      <path d="M100,191.861 C100,204.786 110.024,215.265 122.387,215.265 C134.749,215.265 144.774,204.786 144.774,191.861 C144.774,178.936 134.749,168.456 122.387,168.456 C110.024,168.456 100,178.936 100,191.861" fill="#F8D237"/>
      <path d="M100,191.861 C100,204.786 110.024,215.265 122.387,215.265 C134.749,215.265 144.774,204.786 144.774,191.861 C144.774,178.936 134.749,168.456 122.387,168.456 C110.024,168.456 100,178.936 100,191.861" fill-opacity="0" stroke="#000000" stroke-width="5"/>
    </g>
    <path d="M100,191.861 C100,204.786 110.024,215.265 122.387,215.265 C134.749,215.265 144.774,204.786 144.774,191.861 C144.774,178.936 134.749,168.456 122.387,168.456 C110.024,168.456 100,178.936 100,191.861 z" fill-opacity="0" stroke="#000000" stroke-width="5"/>
    <g>
      <path d="M100,295.054 C100,307.979 110.024,318.458 122.387,318.458 C134.749,318.458 144.774,307.979 144.774,295.054 C144.774,282.129 134.749,271.65 122.387,271.65 C110.024,271.65 100,282.129 100,295.054" fill="#F8D237"/>
      <path d="M100,295.054 C100,307.979 110.024,318.458 122.387,318.458 C134.749,318.458 144.774,307.979 144.774,295.054 C144.774,282.129 134.749,271.65 122.387,271.65 C110.024,271.65 100,282.129 100,295.054" fill-opacity="0" stroke="#000000" stroke-width="5"/>
    </g>
    <path d="M100,295.054 C100,307.979 110.024,318.458 122.387,318.458 C134.749,318.458 144.774,307.979 144.774,295.054 C144.774,282.129 134.749,271.65 122.387,271.65 C110.024,271.65 100,282.129 100,295.054 z" fill-opacity="0" stroke="#000000" stroke-width="5"/>
    <g>
      <path d="M152.749,375.396 C152.749,388.321 162.773,398.801 175.136,398.801 C187.498,398.801 197.522,388.321 197.522,375.396 C197.522,362.469 187.498,351.99 175.136,351.99 C162.773,351.99 152.749,362.469 152.749,375.396" fill="#F8D237"/>
      <path d="M152.749,375.396 C152.749,388.321 162.773,398.801 175.136,398.801 C187.498,398.801 197.522,388.321 197.522,375.396 C197.522,362.469 187.498,351.99 175.136,351.99 C162.773,351.99 152.749,362.469 152.749,375.396" fill-opacity="0" stroke="#000000" stroke-width="5"/>
    </g>
    <path d="M152.749,375.396 C152.749,388.321 162.773,398.801 175.136,398.801 C187.498,398.801 197.522,388.321 197.522,375.396 C197.522,362.469 187.498,351.99 175.136,351.99 C162.773,351.99 152.749,362.469 152.749,375.396 z" fill-opacity="0" stroke="#000000" stroke-width="5"/>
    <g>
      <path d="M142.218,124.785 C142.218,137.71 152.242,148.189 164.604,148.189 C176.967,148.189 186.991,137.71 186.991,124.785 C186.991,111.86 176.967,101.381 164.604,101.381 C152.242,101.381 142.218,111.86 142.218,124.785" fill="#F8D237"/>
      <path d="M142.218,124.785 C142.218,137.71 152.242,148.189 164.604,148.189 C176.967,148.189 186.991,137.71 186.991,124.785 C186.991,111.86 176.967,101.381 164.604,101.381 C152.242,101.381 142.218,111.86 142.218,124.785" fill-opacity="0" stroke="#000000" stroke-width="5"/>
    </g>
    <path d="M142.218,124.785 C142.218,137.71 152.242,148.189 164.604,148.189 C176.967,148.189 186.991,137.71 186.991,124.785 C186.991,111.86 176.967,101.381 164.604,101.381 C152.242,101.381 142.218,111.86 142.218,124.785 z" fill-opacity="0" stroke="#000000" stroke-width="5"/>
    <path d="M214.163,198.027 C220.513,157.281 208.066,141.681 180.068,141.681" fill-opacity="0" stroke="#000000" stroke-width="5"/>
    <path d="M180.068,227.507 C180.068,230.26 186.991,180.252 144.773,191.861" fill-opacity="0" stroke="#000000" stroke-width="5" stroke-linecap="round"/>
    <path d="M206.422,315.879 C158.064,311.823 164.66,335.844 166.85,353.875" fill-opacity="0" stroke="#000000" stroke-width="5"/>
    <path d="M172.827,258.809 C156.442,239.912 128.053,240.608 123.827,270.903" fill-opacity="0" stroke="#000000" stroke-width="5"/>
    <path d="M158.124,63.501 C73.672,99.623 19.141,194.786 47.622,302.466 C77.602,415.813 192.608,483.079 304.495,452.707 C416.383,422.336 482.781,305.829 452.801,192.482 C424.32,84.802 330.126,30.009 239.16,41.504" fill-opacity="0" stroke="#F8D237" stroke-width="30" stroke-linecap="round"/>
    <path d="M237.472,16 L218.355,41.471 L240.355,65.816" fill-opacity="0" stroke="#F8D237" stroke-width="20" stroke-linecap="round" stroke-linejoin="round"/>
  </g>
</svg>
