<?xml version="1.0" encoding="UTF-8"?>
<!DOCTYPE svg PUBLIC "-//W3C//DTD SVG 1.1//EN" "http://www.w3.org/Graphics/SVG/1.1/DTD/svg11.dtd">
<svg version="1.1" xmlns="http://www.w3.org/2000/svg" xmlns:xlink="http://www.w3.org/1999/xlink" x="0" y="0" width="1024" height="1024" viewBox="0, 0, 1024, 1024">
  <g id="Background">
    <rect x="0" y="0" width="1024" height="1024" fill="#000000" fill-opacity="0"/>
  </g>
  <g id="Layer_1">
    <path d="M514.208,773.674 C650.887,770.227 765.602,684.597 773.683,541.408 L773.683,541.316 C768.029,396.042 648.861,315.147 514.17,309.057 C370.86,309.057 254.654,413.05 254.654,541.362 C260.293,686.633 379.419,767.588 514.131,773.674 L514.208,773.674 z" fill="#F8D237"/>
    <path d="M773.683,541.363 C773.683,669.684 657.485,773.677 514.167,773.677 C370.858,773.677 254.651,669.684 254.651,541.363 C254.651,413.051 370.858,309.058 514.167,309.058 C657.485,309.058 773.683,413.051 773.683,541.363 z" fill-opacity="0" stroke="#000000" stroke-width="20"/>
    <path d="M463.125,499.478 C463.125,528.476 450.103,551.969 434.069,551.969 C418.011,551.969 404.996,528.476 404.996,499.478 C404.996,470.481 418.011,446.987 434.069,446.987 C450.103,446.987 463.125,470.481 463.125,499.478" fill="#000000"/>
    <path d="M463.125,499.478 C463.125,528.476 450.103,551.969 434.069,551.969 C418.011,551.969 404.996,528.476 404.996,499.478 C404.996,470.481 418.011,446.987 434.069,446.987 C450.103,446.987 463.125,470.481 463.125,499.478 z" fill-opacity="0" stroke="#000000" stroke-width="15"/>
    <path d="M403.014,625.485 C394.614,762.706 577.862,678.87 634.711,632.64 C652.527,618.15 625.134,613.248 613.706,620.661 C613.561,620.755 613.424,620.841 613.288,620.936 C594.466,633.147 622.592,640.508 634.293,632.915 C634.43,632.82 634.575,632.734 634.711,632.64 C627.709,628.65 620.708,624.66 613.706,620.661 C590.483,639.545 559.944,653.003 532.875,664.862 C484.11,686.232 431.917,690.849 436.138,621.977 C437.068,606.773 403.791,612.844 403.014,625.485" fill="#000000"/>
    <path d="M1012,313.6 C1012,356.683 978.586,391.614 937.377,391.614 C896.169,391.614 862.755,356.683 862.755,313.6 C862.755,270.516 896.169,235.586 937.377,235.586 C978.586,235.586 1012,270.516 1012,313.6" fill="#F8D237"/>
    <path d="M1012,313.6 C1012,356.683 978.586,391.614 937.377,391.614 C896.169,391.614 862.755,356.683 862.755,313.6 C862.755,270.516 896.169,235.586 937.377,235.586 C978.586,235.586 1012,270.516 1012,313.6 z" fill-opacity="0" stroke="#000000" stroke-width="20"/>
    <path d="M1012,657.577 C1012,700.661 978.586,735.592 937.377,735.592 C896.169,735.592 862.755,700.661 862.755,657.577 C862.755,614.494 896.169,579.563 937.377,579.563 C978.586,579.563 1012,614.494 1012,657.577" fill="#F8D237"/>
    <path d="M1012,657.577 C1012,700.661 978.586,735.592 937.377,735.592 C896.169,735.592 862.755,700.661 862.755,657.577 C862.755,614.494 896.169,579.563 937.377,579.563 C978.586,579.563 1012,614.494 1012,657.577 z" fill-opacity="0" stroke="#000000" stroke-width="20"/>
    <path d="M836.171,933.986 C836.171,977.069 802.757,1012 761.548,1012 C720.339,1012 686.925,977.069 686.925,933.986 C686.925,890.894 720.339,855.963 761.548,855.963 C802.757,855.963 836.171,890.894 836.171,933.986" fill="#F8D237"/>
    <path d="M836.171,933.986 C836.171,977.069 802.757,1012 761.548,1012 C720.339,1012 686.925,977.069 686.925,933.986 C686.925,890.894 720.339,855.963 761.548,855.963 C802.757,855.963 836.171,890.894 836.171,933.986 z" fill-opacity="0" stroke="#000000" stroke-width="20"/>
    <path d="M871.276,90.014 C871.276,133.097 837.862,168.028 796.653,168.028 C755.444,168.028 722.03,133.097 722.03,90.014 C722.03,46.931 755.444,12 796.653,12 C837.862,12 871.276,46.931 871.276,90.014" fill="#F8D237"/>
    <path d="M871.276,90.014 C871.276,133.097 837.862,168.028 796.653,168.028 C755.444,168.028 722.03,133.097 722.03,90.014 C722.03,46.931 755.444,12 796.653,12 C837.862,12 871.276,46.931 871.276,90.014 z" fill-opacity="0" stroke="#000000" stroke-width="20"/>
    <path d="M631.455,334.153 C610.288,198.334 651.778,146.333 745.103,146.333" fill-opacity="0" stroke="#000000" stroke-width="20"/>
    <path d="M745.104,432.422 C745.104,441.597 722.026,274.906 862.751,313.603" fill-opacity="0" stroke="#000000" stroke-width="20" stroke-linecap="round"/>
    <path d="M773.683,541.363 C828.298,478.372 922.928,480.694 937.017,581.677" fill-opacity="0" stroke="#000000" stroke-width="20"/>
    <path d="M616.634,499.478 C616.634,528.476 603.62,551.969 587.579,551.969 C571.52,551.969 558.506,528.476 558.506,499.478 C558.506,470.481 571.52,446.987 587.579,446.987 C603.62,446.987 616.634,470.481 616.634,499.478" fill="#000000"/>
    <path d="M616.634,499.478 C616.634,528.476 603.62,551.969 587.579,551.969 C571.52,551.969 558.506,528.476 558.506,499.478 C558.506,470.481 571.52,446.987 587.579,446.987 C603.62,446.987 616.634,470.481 616.634,499.478 z" fill-opacity="0" stroke="#000000" stroke-width="15"/>
    <path d="M657.26,735.594 C818.453,722.076 796.467,802.145 789.167,862.247" fill-opacity="0" stroke="#000000" stroke-width="20"/>
    <path d="M12,318.202 C12,361.285 45.414,396.216 86.623,396.216 C127.831,396.216 161.245,361.285 161.245,318.202 C161.245,275.119 127.831,240.188 86.623,240.188 C45.414,240.188 12,275.119 12,318.202" fill="#F8D237"/>
    <path d="M12,318.202 C12,361.285 45.414,396.216 86.623,396.216 C127.831,396.216 161.245,361.285 161.245,318.202 C161.245,275.119 127.831,240.188 86.623,240.188 C45.414,240.188 12,275.119 12,318.202 z" fill-opacity="0" stroke="#000000" stroke-width="20"/>
    <path d="M12,662.18 C12,705.263 45.414,740.194 86.623,740.194 C127.831,740.194 161.245,705.263 161.245,662.18 C161.245,619.097 127.831,584.166 86.623,584.166 C45.414,584.166 12,619.097 12,662.18" fill="#F8D237"/>
    <path d="M12,662.18 C12,705.263 45.414,740.194 86.623,740.194 C127.831,740.194 161.245,705.263 161.245,662.18 C161.245,619.097 127.831,584.166 86.623,584.166 C45.414,584.166 12,619.097 12,662.18 z" fill-opacity="0" stroke="#000000" stroke-width="20"/>
    <path d="M187.829,929.988 C187.829,973.071 221.243,1008.002 262.452,1008.002 C303.661,1008.002 337.075,973.071 337.075,929.988 C337.075,886.896 303.661,851.965 262.452,851.965 C221.243,851.965 187.829,886.896 187.829,929.988" fill="#F8D237"/>
    <path d="M187.829,929.988 C187.829,973.071 221.243,1008.002 262.452,1008.002 C303.661,1008.002 337.075,973.071 337.075,929.988 C337.075,886.896 303.661,851.965 262.452,851.965 C221.243,851.965 187.829,886.896 187.829,929.988 z" fill-opacity="0" stroke="#000000" stroke-width="20"/>
    <path d="M152.725,94.617 C152.725,137.7 186.139,172.631 227.348,172.631 C268.557,172.631 301.97,137.7 301.97,94.617 C301.97,51.533 268.557,16.602 227.348,16.602 C186.139,16.602 152.725,51.533 152.725,94.617" fill="#F8D237"/>
    <path d="M152.725,94.617 C152.725,137.7 186.139,172.631 227.348,172.631 C268.557,172.631 301.97,137.7 301.97,94.617 C301.97,51.533 268.557,16.602 227.348,16.602 C186.139,16.602 152.725,51.533 152.725,94.617 z" fill-opacity="0" stroke="#000000" stroke-width="20"/>
    <path d="M392.542,338.756 C413.709,202.936 372.219,150.935 278.894,150.935" fill-opacity="0" stroke="#000000" stroke-width="20"/>
    <path d="M278.892,437.023 C278.892,446.199 301.97,279.507 161.244,318.205" fill-opacity="0" stroke="#000000" stroke-width="20" stroke-linecap="round"/>
    <path d="M366.74,731.596 C205.547,718.078 227.533,798.147 234.833,858.249" fill-opacity="0" stroke="#000000" stroke-width="20"/>
    <path d="M254.756,541.363 C200.141,478.372 105.511,480.694 91.422,581.677" fill-opacity="0" stroke="#000000" stroke-width="20"/>
  </g>
</svg>
