<?xml version="1.0" encoding="UTF-8"?>
<!DOCTYPE svg PUBLIC "-//W3C//DTD SVG 1.1//EN" "http://www.w3.org/Graphics/SVG/1.1/DTD/svg11.dtd">
<svg version="1.1" xmlns="http://www.w3.org/2000/svg" xmlns:xlink="http://www.w3.org/1999/xlink" x="0" y="0" width="500" height="500" viewBox="0, 0, 500, 500">
  <g id="Background">
    <rect x="0" y="0" width="500" height="500" fill="#000000" fill-opacity="0"/>
  </g>
  <g id="horizontal_outline">
    <g>
      <path d="M290.266,169.432 C326.127,169.432 357.199,188.93 374.36,217.664 L475.443,217.778 L475.443,163.502 C475.443,143.377 459.08,127.014 438.898,127.014 L61.988,127.014 C41.863,127.014 25.557,143.377 25.557,163.502 L25.671,217.322 L206.173,217.436 C223.448,188.816 254.405,169.432 290.266,169.432" fill-opacity="0" stroke="#00A5E6" stroke-width="10"/>
      <path d="M120.084,109.796 L86.56,109.796 L82.684,121.883 L122.877,121.883 z" fill-opacity="0" stroke="#00A5E6" stroke-width="10"/>
      <path d="M422.421,103.354 L377.78,103.354 L369.856,121.997 L429.662,121.997 z" fill-opacity="0" stroke="#00A5E6" stroke-width="10"/>
      <path d="M304.405,89.5 L195.967,89.5 L173.619,122.225 L324.93,122.225 L304.405,89.5 z M269.172,115.555 L230.688,115.555 L230.688,96.969 L269.172,96.969 L269.172,115.555 z" fill-opacity="0" stroke="#00A5E6" stroke-width="10"/>
      <path d="M379.548,227.356 C385.135,239.671 388.442,253.24 388.442,267.664 C388.442,321.883 344.485,365.897 290.209,365.897 C235.933,365.897 191.977,321.94 191.977,267.664 C191.977,253.24 195.226,239.671 200.871,227.299 L25.5,227.299 L25.5,375.304 C25.5,395.429 41.749,411.792 61.931,411.792 L438.841,411.792 C459.023,411.792 475.386,395.429 475.386,375.304 L475.5,227.356 L379.548,227.356 z" fill-opacity="0" stroke="#00A5E6" stroke-width="10"/>
      <path d="M343.801,235.395 C342.262,232.658 340.323,230.093 338.214,227.641 C326.754,213.844 309.593,204.836 290.209,204.836 C270.825,204.836 253.664,213.787 242.205,227.527 C240.095,230.036 238.214,232.601 236.503,235.395 C230.688,244.859 227.267,255.806 227.267,267.664 C227.267,302.328 255.432,330.492 290.209,330.492 C324.816,330.492 353.037,302.385 353.037,267.664 C353.037,255.806 349.616,244.859 343.801,235.395" fill-opacity="0" stroke="#00A5E6" stroke-width="10"/>
    </g>
  </g>
</svg>
