<?xml version="1.0" encoding="UTF-8"?>
<!DOCTYPE svg PUBLIC "-//W3C//DTD SVG 1.1//EN" "http://www.w3.org/Graphics/SVG/1.1/DTD/svg11.dtd">
<svg version="1.1" xmlns="http://www.w3.org/2000/svg" xmlns:xlink="http://www.w3.org/1999/xlink" x="0" y="0" width="500" height="500" viewBox="0, 0, 500, 500">
  <g id="Background">
    <rect x="0" y="0" width="500" height="500" fill="#000000" fill-opacity="0"/>
  </g>
  <g id="horizontal_outline">
    <path d="M269.357,264.463 L288.248,260.988 C288.299,255.495 287.876,250.032 287.003,244.663 L267.812,244.082 C266.48,237.786 264.362,231.666 261.506,225.894 L276.143,213.342 C273.506,208.582 270.455,204.059 267.017,199.799 L250.106,208.994 C245.903,204.271 241.058,200.035 235.619,196.424 L242.069,178.17 C239.762,176.785 237.383,175.476 234.911,174.279 C232.451,173.083 229.973,172.034 227.475,171.071 L217.38,187.574 C211.194,185.535 204.891,184.347 198.606,183.972 L195.159,164.896 C189.72,164.836 184.317,165.26 179.004,166.142 L178.425,185.523 C172.182,186.868 166.122,189.007 160.401,191.897 L147.963,177.118 C143.268,179.791 138.786,182.869 134.583,186.335 L143.679,203.401 C139.002,207.646 134.796,212.557 131.22,218.053 C124.662,215.69 118.476,213.46 113.142,211.533 C111.781,213.878 110.488,216.266 109.303,218.75 C108.118,221.234 107.077,223.746 106.117,226.282 C110.938,229.29 116.514,232.778 122.445,236.477 C120.435,242.724 119.259,249.099 118.884,255.446 L100.006,258.927 C99.946,264.414 100.369,269.865 101.242,275.243 L120.432,275.815 C121.773,282.132 123.9,288.258 126.753,294.021 L112.122,306.576 C114.771,311.327 117.81,315.853 121.26,320.107 L138.15,310.912 C142.374,315.635 147.225,319.871 152.655,323.482 L146.217,341.736 C148.512,343.103 150.885,344.409 153.345,345.596 C155.814,346.802 158.304,347.862 160.821,348.814 L170.919,332.332 C177.093,334.362 183.396,335.55 189.669,335.919 L193.119,354.994 C198.558,355.055 203.958,354.619 209.283,353.746 L209.871,334.356 C216.105,333.011 222.153,330.872 227.867,327.981 L240.296,342.751 C245,340.1 249.482,337.019 253.697,333.556 L244.601,316.468 C249.269,312.224 253.451,307.331 257.03,301.838 L275.105,308.361 C276.467,306.025 277.772,303.619 278.957,301.135 C280.133,298.659 281.171,296.136 282.134,293.6 L265.805,283.405 C267.812,277.163 268.985,270.807 269.357,264.463 z M228.443,276.609 C219.327,295.754 196.578,303.813 177.621,294.597 C158.664,285.401 150.684,262.424 159.81,243.279 C168.924,224.134 191.676,216.075 210.624,225.282 C229.58,234.49 237.563,257.464 228.443,276.609 z" fill="#06A7E4"/>
    <path d="M381.826,204.574 L400,195.463 C398.863,190.355 397.138,185.386 394.855,180.684 L375.025,185.032 C372.262,180.587 368.74,176.567 364.546,173.213 L371.026,153.801 C368.86,152.417 366.604,151.117 364.243,149.969 C361.87,148.821 359.467,147.851 357.04,147.009 L346.06,164.233 C340.847,163.027 335.543,162.751 330.377,163.354 L321.359,145 C316.298,146.136 311.381,147.878 306.725,150.175 L311.027,170.192 C306.617,172.974 302.618,176.527 299.276,180.772 C292.511,178.467 285.854,176.209 280.055,174.231 C278.672,176.428 277.376,178.712 276.242,181.13 C275.105,183.493 274.157,185.898 273.32,188.334 C278.468,191.673 284.387,195.524 290.384,199.411 C289.16,204.707 288.896,210.082 289.493,215.329 C283.1,218.529 276.8,221.686 271.307,224.44 C272.435,229.539 274.151,234.496 276.425,239.198 C282.413,237.88 289.274,236.377 296.243,234.85 C299.018,239.334 302.555,243.382 306.791,246.772 L300.302,266.172 C302.471,267.559 304.715,268.847 307.097,269.995 C309.449,271.143 311.849,272.113 314.264,272.964 C317.576,267.765 321.368,261.787 325.241,255.719 C330.494,256.958 335.837,257.216 341.042,256.61 L350.041,274.955 C355.099,273.806 360.007,272.076 364.666,269.768 C363.361,263.73 361.87,256.791 360.361,249.741 C364.771,246.951 368.77,243.376 372.112,239.11 L391.336,245.642 C392.698,243.476 393.961,241.219 395.089,238.843 C396.226,236.438 397.207,233.99 398.038,231.539 L380.974,220.441 C382.171,215.166 382.438,209.791 381.826,204.574 z M355.156,219.45 C349.969,230.321 337.055,234.895 326.3,229.666 C315.536,224.44 311.009,211.394 316.184,200.523 C321.353,189.652 334.28,185.08 345.04,190.307 C355.795,195.527 360.319,208.582 355.156,219.45 z" fill="#06A7E4"/>
    <path d="M96.058,425.5 C70.897,425.5 50.5,406.39 50.5,382.817 L50.5,118.183 C50.5,94.61 70.897,75.5 96.058,75.5 L404.942,75.5 C430.103,75.5 450.5,94.61 450.5,118.183 L450.5,382.817 C450.5,406.39 430.103,425.5 404.942,425.5 L233.5,425.5 C229.776,449.536 211.827,466.932 192.465,479.856 C191.759,480.477 192.112,480.319 191.5,480.5 L192.465,479.856 C195.757,476.197 197.509,470.918 198.695,466.229 C202.832,449.871 199.201,435.934 185.5,425.5 L96.058,425.5 z" fill-opacity="0" stroke="#06A7E4" stroke-width="15" stroke-linecap="round" stroke-linejoin="round"/>
  </g>
</svg>
