<?xml version="1.0" encoding="UTF-8"?>
<!DOCTYPE svg PUBLIC "-//W3C//DTD SVG 1.1//EN" "http://www.w3.org/Graphics/SVG/1.1/DTD/svg11.dtd">
<svg version="1.1" xmlns="http://www.w3.org/2000/svg" xmlns:xlink="http://www.w3.org/1999/xlink" x="0" y="0" width="500" height="500" viewBox="0, 0, 500, 500">
  <g id="Background">
    <rect x="0" y="0" width="500" height="500" fill="#000000" fill-opacity="0"/>
  </g>
  <g id="Layer_1">
    <path d="M240.5,242.5 C174.226,242.5 120.5,206.683 120.5,162.5" fill-opacity="0" stroke="#00A5E6" stroke-width="10"/>
    <g>
      <path d="M259.731,180 L471.269,180 C481.89,180 490.5,190.447 490.5,203.333 L490.5,296.667 C490.5,309.553 481.89,320 471.269,320 L259.731,320 C249.11,320 240.5,309.553 240.5,296.667 L240.5,203.333 C240.5,190.447 249.11,180 259.731,180 z" fill-opacity="0" stroke="#00A5E6" stroke-width="10"/>
    </g>
    <path d="M240.5,432.5 C174.226,432.5 120.5,311.617 120.5,162.5" fill-opacity="0" stroke="#00A5E6" stroke-width="10"/>
    <g>
      <path d="M33.333,12.5 L241.667,12.5 C253.173,12.5 262.5,23.693 262.5,37.5 L262.5,137.5 C262.5,151.307 253.173,162.5 241.667,162.5 L33.333,162.5 C21.827,162.5 12.5,151.307 12.5,137.5 L12.5,37.5 C12.5,23.693 21.827,12.5 33.333,12.5 z" fill-opacity="0" stroke="#00A5E6" stroke-width="10"/>
    </g>
    <path d="M132.5,168.5 L132.5,168.5" fill-opacity="0" stroke="#00A5E6" stroke-width="10"/>
    <path d="M144.5,300.5 L144.5,300.5" fill-opacity="0" stroke="#00A5E6" stroke-width="10"/>
    <path d="M396.5,174.5 L396.5,174.5" fill-opacity="0" stroke="#00A5E6" stroke-width="10"/>
    <g>
      <path d="M259.731,340.5 L471.269,340.5 C481.89,340.5 490.5,350.947 490.5,363.833 L490.5,457.167 C490.5,470.053 481.89,480.5 471.269,480.5 L259.731,480.5 C249.11,480.5 240.5,470.053 240.5,457.167 L240.5,363.833 C240.5,350.947 249.11,340.5 259.731,340.5 z" fill-opacity="0" stroke="#00A5E6" stroke-width="10"/>
    </g>
    <g>
      <g>
        <path d="M259.731,180 L471.269,180 C481.89,180 490.5,190.447 490.5,203.333 L490.5,296.667 C490.5,309.553 481.89,320 471.269,320 L259.731,320 C249.11,320 240.5,309.553 240.5,296.667 L240.5,203.333 C240.5,190.447 249.11,180 259.731,180 z" fill="#00A5E6"/>
        <path d="M259.731,180 L471.269,180 C481.89,180 490.5,190.447 490.5,203.333 L490.5,296.667 C490.5,309.553 481.89,320 471.269,320 L259.731,320 C249.11,320 240.5,309.553 240.5,296.667 L240.5,203.333 C240.5,190.447 249.11,180 259.731,180 z" fill-opacity="0" stroke="#00A5E6" stroke-width="10" stroke-dasharray="30,20"/>
      </g>
    </g>
    <path d="M315.5,410 L415.5,411" fill-opacity="0" stroke="#00A5E6" stroke-width="10" stroke-linecap="round"/>
    <path d="M366,360.5 L365,460.5" fill-opacity="0" stroke="#00A5E6" stroke-width="10" stroke-linecap="round"/>
  </g>
</svg>
